<svg width="48" height="25" viewBox="0 0 48 25" fill="none" xmlns="http://www.w3.org/2000/svg">
<rect width="48" height="25" rx="12.5" fill="#CDCDCD"/>
<circle cx="35.5" cy="12.5" r="11.5" fill="#232427"/>
<path d="M32.9138 12.8333C32.9138 14.4439 34.2239 15.7541 35.8345 15.7541C37.4451 15.7541 38.7553 14.4439 38.7553 12.8333C38.7553 11.2228 37.4451 9.91258 35.8345 9.91258C34.2239 9.91258 32.9138 11.2228 32.9138 12.8333ZM35.25 16.9167H36.4167V18.6667H35.25V16.9167ZM35.25 7H36.4167V8.75H35.25V7ZM30 12.25H31.75V13.4167H30V12.25ZM39.9167 12.25H41.6667V13.4167H39.9167V12.25ZM32.1216 17.3705L31.2968 16.5457L32.534 15.3084L33.3588 16.1333L32.1216 17.3705ZM38.3078 9.534L39.5457 8.29617L40.3705 9.121L39.1327 10.3588L38.3078 9.534ZM32.534 10.3594L31.2968 9.12158L32.1222 8.29675L33.3588 9.53458L32.534 10.3594ZM40.3705 16.5457L39.5457 17.3705L38.3078 16.1327L39.1327 15.3078L40.3705 16.5457Z" fill="#1EE1B3"/>
</svg>
