<svg width="62" height="62" viewBox="0 0 62 62" fill="none" xmlns="http://www.w3.org/2000/svg">
<path d="M27.0751 46.5236C26.2651 46.5188 25.4653 46.343 24.7279 46.0077C23.9304 45.6562 23.251 45.0825 22.7707 44.3553C22.2904 43.628 22.0297 42.7779 22.0195 41.9065V20.188C22.0297 19.3165 22.2904 18.4664 22.7707 17.7392C23.251 17.0119 23.9304 16.4383 24.7279 16.0868C25.6455 15.6533 26.6664 15.4864 27.6742 15.605C28.6821 15.7235 29.6364 16.1229 30.4283 16.7574L43.5832 27.6166C44.0991 28.0273 44.5157 28.5491 44.8021 29.143C45.0884 29.737 45.2371 30.3879 45.2371 31.0472C45.2371 31.7066 45.0884 32.3575 44.8021 32.9515C44.5157 33.5454 44.0991 34.0671 43.5832 34.4778L30.4283 45.3371C29.4801 46.106 28.296 46.525 27.0751 46.5236Z" fill="#1EE1B3"/>
</svg>
